<svg width="146" height="40" viewBox="0 0 146 40" fill="none" xmlns="http://www.w3.org/2000/svg">
<path d="M2 33C2.18667 33 2.37333 32.8133 2.56 32.44C2.74667 32.0667 2.84 31.4533 2.84 30.6V11.4C2.84 10.5467 2.74667 9.94667 2.56 9.6C2.37333 9.22667 2.18667 9.02667 2 9H25.36V10.2L26.16 14.84C25.4933 14.5467 24.32 14.24 22.64 13.92C20.96 13.5733 18.9333 13.4 16.56 13.4H10.64C9.84 13.4 9.36 13.4667 9.2 13.6C9.06667 13.7067 9 14.04 9 14.6V17.56C9 18.1467 9.06667 18.4933 9.2 18.6C9.36 18.7067 9.82667 18.76 10.6 18.76H16.36C17.9067 18.76 19.1467 18.68 20.08 18.52C21.04 18.3333 21.6667 18.1467 21.96 17.96C21.8533 18.4667 21.7333 19.0533 21.6 19.72C21.4667 20.3867 21.36 21.0267 21.28 21.64C21.2 22.2533 21.16 22.76 21.16 23.16H10.6C9.82667 23.16 9.36 23.2133 9.2 23.32C9.06667 23.4 9 23.7467 9 24.36V27.32C9 27.9333 9.06667 28.2933 9.2 28.4C9.33333 28.5067 9.8 28.56 10.6 28.56H21.4C22.9467 28.56 24.1867 28.3867 25.12 28.04C26.08 27.6667 26.7067 27.3067 27 26.96L26.2 31.76V33H2ZM38.2525 33.4C35.8792 33.4 34.0125 32.9733 32.6525 32.12C31.3192 31.2667 30.3725 30.1067 29.8125 28.64C29.2792 27.1733 29.0125 25.52 29.0125 23.68C29.0125 21.8133 29.2792 20.1467 29.8125 18.68C30.3725 17.2133 31.3192 16.0533 32.6525 15.2C34.0125 14.32 35.8792 13.88 38.2525 13.88C39.0525 13.88 39.7725 13.9467 40.4125 14.08C41.0792 14.2133 41.6658 14.4 42.1725 14.64C42.7058 14.8533 43.1725 15.1333 43.5725 15.48L43.6525 15.44L43.5725 14.68V7.8C43.5725 6.94666 43.4792 6.34666 43.2925 6C43.1325 5.62667 42.9592 5.42667 42.7725 5.4H49.2525V30.6C49.2525 31.4533 49.3325 32.0667 49.4925 32.44C49.6792 32.8133 49.8658 33 50.0525 33H43.5725V32.48L43.6925 31.72L43.5725 31.68C43.1725 32.0267 42.7058 32.3333 42.1725 32.6C41.6392 32.84 41.0392 33.0267 40.3725 33.16C39.7325 33.32 39.0258 33.4 38.2525 33.4ZM38.9325 29.36C39.8125 29.36 40.5458 29.2267 41.1325 28.96C41.7458 28.6933 42.2258 28.32 42.5725 27.84C42.9458 27.3333 43.1992 26.7333 43.3325 26.04C43.4925 25.32 43.5725 24.5333 43.5725 23.68C43.5725 22.8267 43.4925 22.0533 43.3325 21.36C43.1725 20.64 42.9192 20.0267 42.5725 19.52C42.2258 18.9867 41.7458 18.5867 41.1325 18.32C40.5458 18.0267 39.8125 17.88 38.9325 17.88C37.6525 17.88 36.6125 18.32 35.8125 19.2C35.0392 20.08 34.6525 21.5867 34.6525 23.72C34.6525 25.1333 34.8258 26.2533 35.1725 27.08C35.5192 27.9067 36.0125 28.4933 36.6525 28.84C37.2925 29.1867 38.0525 29.36 38.9325 29.36ZM61.9103 33.4C60.3636 33.4 59.0436 33.1333 57.9503 32.6C56.857 32.04 56.0303 31.0933 55.4703 29.76C54.9103 28.4 54.6303 26.52 54.6303 24.12V16.68C54.6303 15.8267 54.537 15.2133 54.3503 14.84C54.1903 14.4667 54.017 14.28 53.8303 14.28H61.1903C61.0036 14.28 60.8036 14.4667 60.5903 14.84C60.4036 15.2133 60.3103 15.8267 60.3103 16.68V24.68C60.3103 26.36 60.617 27.56 61.2303 28.28C61.8703 29 62.6036 29.36 63.4303 29.36C64.6036 29.36 65.5103 29.0933 66.1503 28.56C66.7903 28 67.2436 27.28 67.5103 26.4C67.777 25.4933 67.9103 24.5467 67.9103 23.56V16.68C67.9103 15.8267 67.817 15.2267 67.6303 14.88C67.4703 14.5067 67.297 14.3067 67.1103 14.28H73.5903V30.6C73.5903 31.4533 73.6703 32.0667 73.8303 32.44C74.017 32.8133 74.2036 33 74.3903 33H67.9103V31.44L67.9903 30.64L67.9103 30.56C67.6436 30.96 67.3103 31.3333 66.9103 31.68C66.5103 32.0267 66.057 32.3333 65.5503 32.6C65.0436 32.84 64.4836 33.0267 63.8703 33.16C63.257 33.32 62.6036 33.4 61.9103 33.4Z" fill="#D9ECFF"/>
<path d="M87.9784 33.4C85.8718 33.4 84.1118 33.1867 82.6984 32.76C81.3118 32.3067 80.2051 31.6667 79.3784 30.84C78.5518 29.9867 77.9651 28.96 77.6184 27.76C77.2718 26.56 77.0984 25.2 77.0984 23.68C77.0984 20.6667 77.9384 18.28 79.6184 16.52C81.2984 14.76 83.8718 13.88 87.3384 13.88C89.3651 13.88 91.0051 14.16 92.2584 14.72C93.5384 15.28 94.5118 16.0267 95.1784 16.96C95.8451 17.8933 96.2984 18.9333 96.5384 20.08C96.8051 21.2 96.9384 22.3333 96.9384 23.48V25.36C96.9384 25.28 96.5651 25.2 95.8184 25.12C95.0984 25.0133 93.8718 24.96 92.1384 24.96H82.8584C82.8584 26.4267 83.2984 27.5333 84.1784 28.28C85.0851 29 86.5518 29.36 88.5784 29.36C90.2851 29.36 91.8051 29.16 93.1384 28.76C94.4984 28.3333 95.4851 27.9333 96.0984 27.56V28.76L96.4984 31.8C95.9918 32.1467 95.0184 32.5067 93.5784 32.88C92.1384 33.2267 90.2718 33.4 87.9784 33.4ZM84.3384 21.52H91.2584C91.2584 20.9333 91.1251 20.36 90.8584 19.8C90.6184 19.24 90.2184 18.7867 89.6584 18.44C89.0984 18.0667 88.3251 17.88 87.3384 17.88C86.3518 17.88 85.5518 18.0267 84.9384 18.32C84.3518 18.6133 83.9118 18.9733 83.6184 19.4C83.3518 19.8267 83.2184 20.2667 83.2184 20.72C83.2184 20.9867 83.2984 21.1867 83.4584 21.32C83.6184 21.4533 83.9118 21.52 84.3384 21.52ZM100.315 33C100.501 33 100.675 32.8133 100.835 32.44C101.021 32.0667 101.115 31.4533 101.115 30.6V17.08C101.115 16.2267 101.021 15.6267 100.835 15.28C100.675 14.9067 100.501 14.7067 100.315 14.68C101.488 14.68 102.688 14.6 103.915 14.44C105.141 14.2533 106.101 14.0667 106.795 13.88V15.48L106.715 16.16L106.795 16.24C106.981 15.9467 107.275 15.6267 107.675 15.28C108.101 14.9067 108.635 14.5867 109.275 14.32C109.941 14.0267 110.715 13.88 111.595 13.88C112.901 13.88 114.061 14.0667 115.075 14.44C116.088 14.7867 116.808 15.1467 117.235 15.52L116.035 20.88V22.08C115.635 21.52 115.088 20.9467 114.395 20.36C113.728 19.7733 112.981 19.28 112.155 18.88C111.355 18.48 110.528 18.28 109.675 18.28C108.715 18.28 107.995 18.6267 107.515 19.32C107.035 20.0133 106.795 21.1067 106.795 22.6V30.6C106.795 31.4533 106.875 32.0667 107.035 32.44C107.221 32.8133 107.408 33 107.595 33H100.315ZM126.316 33.4C123.916 33.4 121.996 32.9333 120.556 32C119.143 31.04 118.436 29.5067 118.436 27.4C118.436 25.9333 118.809 24.7467 119.556 23.84C120.303 22.9333 121.316 22.2667 122.596 21.84C123.903 21.3867 125.383 21.16 127.036 21.16C128.263 21.16 129.303 21.2667 130.156 21.48C131.036 21.6933 131.743 21.92 132.276 22.16C132.809 22.4 133.156 22.5733 133.316 22.68C133.316 21.56 133.196 20.6533 132.956 19.96C132.716 19.24 132.276 18.72 131.636 18.4C131.023 18.0533 130.156 17.88 129.036 17.88C127.409 17.88 125.969 18.04 124.716 18.36C123.463 18.68 122.436 19.0533 121.636 19.48C120.863 19.9067 120.329 20.2667 120.036 20.56V19.36L119.636 15.44C119.823 15.3333 120.316 15.16 121.116 14.92C121.916 14.68 123.009 14.4533 124.396 14.24C125.783 14 127.436 13.88 129.356 13.88C131.996 13.88 134.009 14.2667 135.396 15.04C136.783 15.7867 137.729 16.8667 138.236 18.28C138.769 19.6933 139.036 21.4 139.036 23.4V30.6C139.036 31.3467 139.116 31.8933 139.276 32.24C139.463 32.56 139.649 32.8133 139.836 33H133.356V32.16L133.436 31.4L133.356 31.32C133.143 31.56 132.836 31.8 132.436 32.04C132.036 32.28 131.543 32.5067 130.956 32.72C130.369 32.9067 129.689 33.0667 128.916 33.2C128.143 33.3333 127.276 33.4 126.316 33.4ZM128.196 29.36C129.316 29.36 130.249 29.28 130.996 29.12C131.769 28.9333 132.356 28.6933 132.756 28.4C133.156 28.08 133.356 27.7067 133.356 27.28C133.356 26.6667 132.889 26.16 131.956 25.76C131.049 25.36 129.809 25.16 128.236 25.16C126.716 25.16 125.636 25.3733 124.996 25.8C124.383 26.2267 124.076 26.76 124.076 27.4C124.076 28.2 124.436 28.7333 125.156 29C125.876 29.24 126.889 29.36 128.196 29.36Z" fill="#FFD054"/>
</svg>
