<svg width="107" height="107" viewBox="0 0 107 107" fill="none" xmlns="http://www.w3.org/2000/svg">
<circle cx="53.5" cy="53.5" r="52.5" fill="#F2C94C" stroke="#43328D" stroke-width="2"/>
<circle cx="53.4992" cy="53.5001" r="43.1957" stroke="#2A1E17" stroke-width="2"/>
<path d="M28.5714 48.9816L19.9138 48.5913L20.3136 47.3037L27.0349 47.6641L21.3146 44.0792L21.7076 42.8133L28.445 43.0837L22.7053 39.5996L23.1051 38.312L30.466 42.879L29.9957 44.3938L23.7174 44.135L29.0417 47.4668L28.5714 48.9816Z" fill="black"/>
<path d="M28.2903 35.7446C28.5145 35.4407 28.7492 35.2243 28.9946 35.0953C29.2444 34.9602 29.478 34.8789 29.6955 34.8513C29.9129 34.8237 30.0875 34.8161 30.2191 34.8286L30.2595 34.7739L29.5384 34.2436L30.3052 33.2042L35.1427 36.7617L34.376 37.8011L33.6549 37.2708L33.6145 37.3255C33.6654 37.4473 33.71 37.616 33.7481 37.8315C33.7862 38.0471 33.7777 38.294 33.7226 38.5722C33.672 38.8444 33.5346 39.1324 33.3103 39.4364C33.0413 39.801 32.7359 40.0687 32.3942 40.2393C32.0508 40.3993 31.6933 40.4833 31.3214 40.4911C30.9435 40.4944 30.5718 40.4321 30.2064 40.304C29.8455 40.1698 29.5098 39.9886 29.1995 39.7604C28.8892 39.5322 28.6163 39.2659 28.3809 38.9615C28.15 38.6511 27.9832 38.3175 27.8804 37.9606C27.7715 37.5993 27.7457 37.2334 27.8031 36.863C27.8588 36.4821 28.0212 36.1093 28.2903 35.7446ZM29.3255 36.1544C29.1058 36.4522 29.0041 36.7618 29.0204 37.0832C29.0307 37.4001 29.1224 37.702 29.2957 37.9888C29.4734 38.2695 29.6992 38.5106 29.973 38.7119C30.2468 38.9133 30.5443 39.0571 30.8656 39.1433C31.1913 39.2234 31.5103 39.2236 31.8225 39.1439C32.1287 39.0596 32.3917 38.8686 32.6114 38.5708C32.8311 38.2729 32.9336 37.9686 32.9189 37.6578C32.9026 37.3364 32.8055 37.0353 32.6278 36.7546C32.4545 36.4678 32.231 36.2237 31.9572 36.0223C31.6834 35.821 31.3836 35.6802 31.0579 35.6001C30.7366 35.5139 30.4229 35.5129 30.1168 35.5971C29.809 35.6708 29.5452 35.8565 29.3255 36.1544Z" fill="black"/>
<path d="M38.6466 34.2302C38.2758 34.5285 37.924 34.6999 37.5913 34.7446C37.2585 34.7892 36.952 34.7401 36.6717 34.5972C36.3926 34.4437 36.1463 34.2346 35.9329 33.9701L33.9409 31.5011L33.1199 32.1615L32.4654 31.3502L33.2864 30.6899L32.3474 29.5259L33.3539 28.7165L34.2929 29.8804L35.3877 29L36.0422 29.8112L34.9474 30.6917L36.9252 33.143C37.2809 33.5839 37.703 33.6079 38.1915 33.215C38.3151 33.1156 38.4228 33.0145 38.5145 32.9117C38.6062 32.8088 38.6521 32.7574 38.6521 32.7574L39.3137 33.5775C39.3137 33.5775 39.2496 33.6484 39.1214 33.7902C38.9991 33.9274 38.8409 34.074 38.6466 34.2302Z" fill="black"/>
<path d="M43.9544 31.3185C43.4942 31.5291 43.0562 31.634 42.6403 31.6333C42.2213 31.6257 41.837 31.5399 41.4874 31.3759C41.1347 31.205 40.8228 30.9781 40.5516 30.6952C40.2873 30.4091 40.0748 30.0911 39.9141 29.741C39.7533 29.3909 39.6507 29.0225 39.6062 28.6359C39.5685 28.2461 39.6016 27.8655 39.7053 27.4941C39.8059 27.1158 39.9917 26.7691 40.2626 26.4541C40.5304 26.1322 40.8944 25.8659 41.3546 25.6554C41.8079 25.4479 42.2137 25.3453 42.572 25.3474C42.9341 25.3395 43.2501 25.3943 43.5201 25.5116C43.7901 25.629 44.0154 25.7667 44.1961 25.925C44.3767 26.0832 44.5089 26.2262 44.5925 26.3541C44.683 26.4788 44.7283 26.5411 44.7283 26.5411L43.6156 27.0503C43.6156 27.0503 43.5748 27.0067 43.4932 26.9194C43.4185 26.829 43.3049 26.7356 43.1526 26.6392C43.0003 26.5428 42.8112 26.4839 42.5854 26.4627C42.3664 26.4383 42.1093 26.4937 41.8139 26.6288C41.4636 26.7891 41.2127 27.0119 41.0611 27.2973C40.9064 27.5757 40.8318 27.884 40.8374 28.222C40.8498 28.5569 40.9301 28.8856 41.0782 29.2082C41.2263 29.5309 41.4234 29.8062 41.6693 30.0342C41.9222 30.2591 42.2063 30.4073 42.5218 30.4789C42.8341 30.5437 43.1653 30.4959 43.5156 30.3356C43.811 30.2004 44.0208 30.0421 44.1453 29.8606C44.2766 29.6759 44.3554 29.4945 44.3816 29.3163C44.4079 29.1382 44.4111 28.9913 44.3913 28.8758C44.3784 28.7571 44.3719 28.6978 44.3719 28.6978L45.4846 28.1886C45.4846 28.1886 45.5023 28.2635 45.5379 28.4134C45.5803 28.5601 45.6026 28.7534 45.6047 28.9933C45.6068 29.2333 45.5642 29.4936 45.4771 29.7744C45.3899 30.0552 45.2267 30.3334 44.9875 30.609C44.7521 30.8745 44.4077 31.111 43.9544 31.3185Z" fill="black"/>
<path d="M47.7759 29.9546L46.3818 21.4575L47.6565 21.2491L48.2196 24.6814L48.2867 24.6704C48.3217 24.5576 48.3904 24.4162 48.4927 24.2464C48.5937 24.0692 48.7463 23.9026 48.9503 23.7468C49.1618 23.5898 49.4428 23.4826 49.7931 23.4253C50.2329 23.3534 50.6184 23.3937 50.9496 23.5461C51.2808 23.6986 51.5484 23.9304 51.7525 24.2414C51.9641 24.5512 52.1029 24.9074 52.1689 25.3099L52.7962 29.1335L51.5216 29.342L50.9163 25.6525C50.8576 25.2947 50.7074 25.0093 50.4658 24.7962C50.2316 24.582 49.9208 24.5065 49.5331 24.5699C49.2275 24.6199 48.9906 24.739 48.8225 24.9272C48.6606 25.1068 48.5551 25.3268 48.506 25.5874C48.4557 25.8406 48.4532 26.105 48.4984 26.3808L49.0505 29.7461L47.7759 29.9546Z" fill="black"/>
<path d="M61.1785 30.4809L60.832 21.6111L62.1651 22.0171L62.4161 29.3773L66.728 23.4067L68.0611 23.8127L62.8043 30.976L61.1785 30.4809Z" fill="black"/>
<path d="M70.6404 27.0781C70.4389 26.9589 70.3136 26.7926 70.2645 26.5793C70.2154 26.366 70.2448 26.1684 70.3527 25.9865C70.4645 25.7981 70.624 25.6774 70.8311 25.6244C71.042 25.5649 71.2483 25.5948 71.4498 25.714C71.6514 25.8332 71.7767 25.9994 71.8257 26.2127C71.8852 26.4234 71.859 26.6229 71.7472 26.8113C71.6355 26.9997 71.4708 27.1217 71.2534 27.1774C71.0463 27.2304 70.8419 27.1973 70.6404 27.0781ZM66.504 32.8058L69.5682 27.6417L70.6799 28.2993L67.6157 33.4634L66.504 32.8058Z" fill="black"/>
<path d="M71.6557 36.8853C71.3283 36.572 71.1019 36.2353 70.9766 35.875C70.8619 35.5144 70.8247 35.1496 70.865 34.7804C70.9104 34.4058 71.0204 34.0458 71.1948 33.7004C71.3746 33.3603 71.5979 33.0513 71.8646 32.7734C72.1314 32.4954 72.4311 32.2595 72.7638 32.0656C73.1019 31.8769 73.4548 31.7546 73.8225 31.6987C74.1955 31.6373 74.5621 31.6589 74.9226 31.7633C75.2937 31.8674 75.643 32.0761 75.9705 32.3894C76.2434 32.6505 76.428 32.9108 76.5245 33.1703C76.6263 33.435 76.677 33.6768 76.6763 33.8956C76.6756 34.1145 76.6606 34.2883 76.6313 34.4171L76.6804 34.464L79.1045 31.9382L80.0378 32.831L74.0756 39.0435L73.1423 38.1507L73.7621 37.5049L73.7129 37.4579C73.5854 37.4927 73.4121 37.5151 73.1931 37.5251C72.9741 37.5351 72.73 37.4949 72.4608 37.4046C72.197 37.3195 71.9286 37.1464 71.6557 36.8853ZM72.6057 36.3046C72.8731 36.5604 73.1621 36.701 73.4728 36.7264C73.7941 36.7516 74.1056 36.6942 74.4074 36.5543C74.7146 36.4197 74.9859 36.2297 75.2212 35.9845C75.4566 35.7392 75.6351 35.4605 75.7567 35.1483C75.8838 34.8414 75.9253 34.5309 75.8812 34.2169C75.8477 33.9027 75.6973 33.6176 75.4299 33.3618C75.1624 33.1059 74.8681 32.9654 74.5467 32.9403C74.2306 32.9097 73.919 32.9617 73.6118 33.0964C73.31 33.2362 73.0415 33.4288 72.8061 33.674C72.5708 33.9193 72.3895 34.1954 72.2624 34.5023C72.1408 34.8145 72.0994 35.1304 72.1383 35.4498C72.1825 35.7638 72.3382 36.0487 72.6057 36.3046Z" fill="black"/>
<path d="M76.1858 42.9418C75.9298 42.5053 75.7831 42.0836 75.7458 41.6766C75.7189 41.2724 75.7714 40.8917 75.9034 40.5345C76.0458 40.1801 76.2461 39.8573 76.5045 39.5663C76.7666 39.2817 77.064 39.0422 77.3965 38.8478C77.7226 38.6572 78.074 38.5173 78.4508 38.4282C78.8276 38.3391 79.2057 38.3193 79.585 38.3688C79.9642 38.4183 80.3206 38.5555 80.654 38.7806C80.9939 39.0018 81.2881 39.3242 81.5365 39.7476C81.804 40.2037 81.9347 40.6654 81.9286 41.1327C81.9328 41.6027 81.7901 42.0536 81.5005 42.4854C81.2212 42.9199 80.7849 43.3107 80.1915 43.6576L79.8883 43.8349L77.733 40.1604C77.3505 40.419 77.0866 40.7527 76.9411 41.1615C76.7955 41.5703 76.847 41.9865 77.0954 42.4099C77.2368 42.651 77.3925 42.8268 77.5624 42.9375C77.7389 43.0443 77.9042 43.1095 78.0582 43.1332C78.2122 43.1569 78.3378 43.1622 78.4352 43.149C78.5364 43.1423 78.587 43.139 78.587 43.139L79.1946 44.1749C79.1946 44.1749 79.1263 44.1929 78.9899 44.229C78.8599 44.2612 78.6834 44.2813 78.4604 44.2892C78.2412 44.3036 77.999 44.279 77.734 44.2152C77.4689 44.1515 77.1993 44.0203 76.9253 43.8218C76.6578 43.6195 76.4113 43.3262 76.1858 42.9418ZM78.5212 39.7126L80.0402 42.3024C80.4814 42.0095 80.7369 41.6763 80.8069 41.3029C80.8806 40.9361 80.822 40.5897 80.6309 40.264C80.4169 39.8991 80.1186 39.6667 79.7359 39.5667C79.3598 39.4629 78.9549 39.5115 78.5212 39.7126Z" fill="black"/>
<path d="M78.5769 49.388C78.4123 48.7519 78.4158 48.1776 78.5875 47.6653C78.7611 47.1603 79.049 46.735 79.4511 46.3895C79.8551 46.0513 80.3167 45.8152 80.836 45.6813C81.3553 45.5473 81.8737 45.5306 82.3912 45.6311C82.9107 45.739 83.3688 45.9718 83.7657 46.3297C84.1645 46.6948 84.4461 47.1955 84.6108 47.8317C84.7735 48.4605 84.768 49.0275 84.5944 49.5325C84.4227 50.0448 84.1349 50.4701 83.7309 50.8083C83.3288 51.1538 82.8681 51.3935 82.3488 51.5275C81.8295 51.6614 81.3101 51.6745 80.7907 51.5666C80.2732 51.4661 79.815 51.2333 79.4163 50.8681C79.0194 50.5103 78.7396 50.0169 78.5769 49.388ZM79.641 49.1135C79.7337 49.4719 79.9027 49.7481 80.148 49.9422C80.3952 50.1437 80.6848 50.2679 81.0168 50.3149C81.3508 50.3691 81.6859 50.3529 82.0224 50.2661C82.3661 50.1774 82.6673 50.0296 82.9257 49.8225C83.1934 49.6208 83.3866 49.3721 83.5051 49.0763C83.6255 48.7879 83.6393 48.4645 83.5466 48.1062C83.4539 47.7479 83.2839 47.468 83.0368 47.2665C82.7896 47.0651 82.5 46.9408 82.168 46.8939C81.8432 46.845 81.509 46.8649 81.1653 46.9536C80.8288 47.0404 80.5267 47.1846 80.259 47.3863C79.9913 47.5879 79.7982 47.8366 79.6797 48.1324C79.5612 48.4282 79.5483 48.7552 79.641 49.1135Z" fill="black"/>
<path d="M78.571 57.8565L87.2286 58.2468L86.8288 59.5344L80.1075 59.1741L85.8278 62.7589L85.4347 64.0249L78.6973 63.7544L84.437 67.2385L84.0373 68.5261L76.6763 63.9592L77.1466 62.4443L83.425 62.7032L78.1007 59.3714L78.571 57.8565Z" fill="black"/>
<path d="M78.8521 71.0935C78.6279 71.3974 78.3932 71.6138 78.1478 71.7428C77.898 71.8779 77.6644 71.9592 77.4469 71.9868C77.2294 72.0144 77.0549 72.022 76.9233 72.0096L76.8829 72.0643L77.604 72.5945L76.8372 73.6339L71.9997 70.0764L72.7664 69.0371L73.4875 69.5673L73.5279 69.5126C73.4769 69.3908 73.4324 69.2221 73.3943 69.0066C73.3562 68.7911 73.3647 68.5442 73.4198 68.2659C73.4704 67.9937 73.6078 67.7057 73.832 67.4018C74.1011 67.0371 74.4065 66.7694 74.7482 66.5988C75.0915 66.4388 75.4491 66.3549 75.821 66.347C76.1989 66.3437 76.5706 66.4061 76.936 66.5342C77.2969 66.6683 77.6326 66.8495 77.9429 67.0777C78.2532 67.3059 78.5261 67.5722 78.7615 67.8766C78.9924 68.187 79.1592 68.5207 79.262 68.8775C79.3709 69.2389 79.3967 69.6047 79.3393 69.9751C79.2836 70.356 79.1212 70.7288 78.8521 71.0935ZM77.8169 70.6838C78.0366 70.3859 78.1383 70.0763 78.122 69.7549C78.1117 69.438 78.02 69.1361 77.8467 68.8493C77.669 68.5686 77.4432 68.3276 77.1694 68.1262C76.8956 67.9248 76.598 67.7811 76.2768 67.6948C75.9511 67.6147 75.6321 67.6145 75.3198 67.6943C75.0137 67.7785 74.7507 67.9695 74.531 68.2674C74.3113 68.5652 74.2088 68.8695 74.2235 69.1804C74.2398 69.5018 74.3368 69.8028 74.5146 70.0836C74.6878 70.3704 74.9114 70.6144 75.1852 70.8158C75.459 71.0172 75.7588 71.1579 76.0845 71.2381C76.4057 71.3243 76.7194 71.3253 77.0256 71.241C77.3334 71.1673 77.5972 70.9816 77.8169 70.6838Z" fill="black"/>
<path d="M68.4958 72.6081C68.8666 72.3099 69.2184 72.1385 69.5511 72.0938C69.8838 72.0491 70.1904 72.0983 70.4706 72.2412C70.7498 72.3947 70.9961 72.6037 71.2095 72.8683L73.2014 75.3372L74.0225 74.6769L74.677 75.4882L73.8559 76.1485L74.795 77.3124L73.7885 78.1219L72.8495 76.9579L71.7547 77.8384L71.1002 77.0271L72.195 76.1467L70.2172 73.6953C69.8615 73.2545 69.4394 73.2305 68.9509 73.6233C68.8273 73.7227 68.7196 73.8239 68.6279 73.9267C68.5362 74.0296 68.4903 74.081 68.4903 74.081L67.8287 73.2609C67.8287 73.2609 67.8928 73.19 68.021 73.0481C68.1433 72.911 68.3015 72.7644 68.4958 72.6081Z" fill="black"/>
<path d="M63.188 75.5199C63.6482 75.3093 64.0862 75.2044 64.5021 75.2051C64.9211 75.2127 65.3054 75.2985 65.655 75.4625C66.0077 75.6333 66.3196 75.8602 66.5908 76.1432C66.8551 76.4292 67.0676 76.7473 67.2283 77.0974C67.389 77.4475 67.4917 77.8158 67.5362 78.2025C67.5738 78.5923 67.5408 78.9729 67.437 79.3443C67.3364 79.7226 67.1507 80.0693 66.8797 80.3843C66.612 80.7062 66.248 80.9724 65.7878 81.183C65.3345 81.3905 64.9287 81.4931 64.5703 81.491C64.2083 81.4988 63.8922 81.4441 63.6223 81.3268C63.3523 81.2094 63.127 81.0716 62.9463 80.9134C62.7657 80.7552 62.6335 80.6122 62.5499 80.4843C62.4594 80.3596 62.4141 80.2972 62.4141 80.2972L63.5268 79.7881C63.5268 79.7881 63.5676 79.8317 63.6492 79.919C63.7239 80.0093 63.8375 80.1028 63.9898 80.1992C64.1421 80.2956 64.3312 80.3545 64.557 80.3757C64.776 80.4001 65.0331 80.3447 65.3285 80.2096C65.6787 80.0493 65.9297 79.8265 66.0813 79.5411C66.236 79.2626 66.3106 78.9544 66.305 78.6164C66.2926 78.2815 66.2123 77.9528 66.0642 77.6301C65.9161 77.3075 65.719 77.0322 65.4731 76.8042C65.2202 76.5793 64.9361 76.4311 64.6206 76.3595C64.3083 76.2947 63.977 76.3425 63.6268 76.5028C63.3314 76.6379 63.1216 76.7963 62.9971 76.9778C62.8658 77.1625 62.787 77.3439 62.7608 77.5221C62.7345 77.7002 62.7313 77.8471 62.7511 77.9626C62.764 78.0813 62.7705 78.1406 62.7705 78.1406L61.6578 78.6498C61.6578 78.6498 61.64 78.5749 61.6045 78.425C61.5621 78.2783 61.5398 78.085 61.5377 77.845C61.5356 77.6051 61.5781 77.3448 61.6653 77.064C61.7525 76.7832 61.9157 76.505 62.1549 76.2294C62.3903 75.9638 62.7347 75.7273 63.188 75.5199Z" fill="black"/>
<path d="M59.3665 76.8838L60.7606 85.3809L59.4859 85.5893L58.9228 82.157L58.8557 82.1679C58.8206 82.2808 58.752 82.4222 58.6497 82.592C58.5487 82.7692 58.3961 82.9357 58.1921 83.0916C57.9805 83.2486 57.6996 83.3558 57.3493 83.4131C56.9095 83.485 56.524 83.4447 56.1928 83.2922C55.8616 83.1398 55.594 82.908 55.3899 82.597C55.1783 82.2872 55.0395 81.931 54.9735 81.5285L54.3461 77.7049L55.6208 77.4964L56.2261 81.1859C56.2848 81.5437 56.435 81.8291 56.6766 82.0421C56.9107 82.2564 57.2216 82.3318 57.6093 82.2685C57.9149 82.2185 58.1517 82.0994 58.3199 81.9112C58.4818 81.7316 58.5873 81.5115 58.6364 81.2509C58.6867 80.9978 58.6892 80.7333 58.644 80.4576L58.0919 77.0923L59.3665 76.8838Z" fill="black"/>
<path d="M45.9638 76.3573L46.3104 85.2271L44.9773 84.8211L44.7263 77.4608L40.4144 83.4314L39.0813 83.0254L44.3381 75.8622L45.9638 76.3573Z" fill="black"/>
<path d="M36.502 79.7606C36.7035 79.8798 36.8288 80.046 36.8779 80.2593C36.927 80.4726 36.8976 80.6702 36.7896 80.8521C36.6779 81.0405 36.5184 81.1612 36.3113 81.2142C36.1003 81.2737 35.8941 81.2439 35.6926 81.1247C35.491 81.0055 35.3657 80.8392 35.3166 80.6259C35.2572 80.4152 35.2834 80.2157 35.3952 80.0273C35.5069 79.8389 35.6716 79.7169 35.889 79.6613C36.0961 79.6082 36.3004 79.6413 36.502 79.7606ZM40.6384 74.0328L37.5742 79.1969L36.4625 78.5393L39.5267 73.3752L40.6384 74.0328Z" fill="black"/>
<path d="M35.4892 69.9531C35.8166 70.2663 36.043 70.6031 36.1684 70.9634C36.283 71.3239 36.3202 71.6888 36.2799 72.058C36.2345 72.4326 36.1245 72.7926 35.9501 73.1379C35.7703 73.4781 35.547 73.7871 35.2803 74.065C35.0135 74.3429 34.7138 74.5789 34.3812 74.7728C34.043 74.9615 33.6901 75.0838 33.3224 75.1397C32.9495 75.2011 32.5828 75.1795 32.2223 75.0751C31.8512 74.971 31.5019 74.7622 31.1744 74.449C30.9015 74.1879 30.7169 73.9276 30.6204 73.6681C30.5186 73.4034 30.468 73.1616 30.4686 72.9427C30.4693 72.7239 30.4843 72.5501 30.5136 72.4213L30.4645 72.3743L28.0404 74.9002L27.1071 74.0074L33.0693 67.7948L34.0026 68.6877L33.3828 69.3335L33.432 69.3805C33.5595 69.3457 33.7328 69.3233 33.9518 69.3133C34.1708 69.3033 34.4149 69.3435 34.6841 69.4338C34.9479 69.5189 35.2163 69.692 35.4892 69.9531ZM34.5392 70.5338C34.2718 70.278 33.9828 70.1374 33.6721 70.112C33.3508 70.0868 33.0393 70.1442 32.7375 70.284C32.4303 70.4187 32.159 70.6087 31.9237 70.8539C31.6883 71.0991 31.5098 71.3778 31.3882 71.69C31.2611 71.997 31.2196 72.3075 31.2637 72.6215C31.2972 72.9357 31.4476 73.2207 31.715 73.4766C31.9825 73.7324 32.2769 73.8729 32.5982 73.8981C32.9143 73.9287 33.2259 73.8767 33.5331 73.742C33.8349 73.6021 34.1034 73.4096 34.3388 73.1643C34.5741 72.9191 34.7554 72.643 34.8825 72.336C35.0041 72.0238 35.0455 71.708 35.0066 71.3886C34.9624 71.0746 34.8067 70.7897 34.5392 70.5338Z" fill="black"/>
<path d="M30.9566 63.8963C31.2126 64.3329 31.3593 64.7546 31.3966 65.1615C31.4235 65.5657 31.371 65.9464 31.239 66.3036C31.0966 66.6581 30.8963 66.9808 30.6379 67.2719C30.3757 67.5564 30.0784 67.7959 29.7458 67.9903C29.4198 68.181 29.0684 68.3208 28.6916 68.4099C28.3147 68.499 27.9367 68.5188 27.5574 68.4693C27.1781 68.4199 26.8218 68.2826 26.4884 68.0576C26.1485 67.8363 25.8543 67.514 25.6059 67.0905C25.3384 66.6344 25.2077 66.1728 25.2138 65.7055C25.2096 65.2355 25.3523 64.7845 25.6419 64.3527C25.9212 63.9182 26.3575 63.5275 26.9509 63.1805L27.2541 63.0032L29.4094 66.6778C29.7918 66.4191 30.0558 66.0854 30.2013 65.6766C30.3468 65.2678 30.2954 64.8517 30.047 64.4282C29.9056 64.1871 29.7499 64.0113 29.5799 63.9007C29.4035 63.7939 29.2382 63.7286 29.0842 63.7049C28.9302 63.6812 28.8045 63.676 28.7072 63.6892C28.606 63.6958 28.5554 63.6991 28.5554 63.6991L27.9478 62.6632C27.9478 62.6632 28.016 62.6452 28.1525 62.6092C28.2825 62.5769 28.459 62.5569 28.682 62.5489C28.9012 62.5345 29.1433 62.5592 29.4084 62.6229C29.6735 62.6867 29.943 62.8178 30.2171 63.0163C30.4846 63.2186 30.7311 63.512 30.9566 63.8963ZM28.6212 67.1255L27.1022 64.5357C26.661 64.8287 26.4055 65.1618 26.3355 65.5352C26.2617 65.9021 26.3204 66.2484 26.5115 66.5742C26.7255 66.939 27.0238 67.1714 27.4064 67.2714C27.7826 67.3752 28.1875 67.3266 28.6212 67.1255Z" fill="black"/>
<path d="M28.5655 57.4506C28.7301 58.0868 28.7266 58.661 28.5549 59.1733C28.3813 59.6783 28.0934 60.1036 27.6913 60.4491C27.2873 60.7873 26.8256 61.0234 26.3064 61.1574C25.7871 61.2913 25.2687 61.308 24.7511 61.2075C24.2317 61.0997 23.7736 60.8668 23.3767 60.509C22.9779 60.1438 22.6962 59.6431 22.5316 59.0069C22.3689 58.3781 22.3743 57.8112 22.5479 57.3062C22.7196 56.7938 23.0075 56.3686 23.4115 56.0304C23.8136 55.6848 24.2743 55.4451 24.7936 55.3111C25.3129 55.1772 25.8322 55.1641 26.3517 55.272C26.8692 55.3725 27.3273 55.6053 27.7261 55.9705C28.123 56.3284 28.4028 56.8217 28.5655 57.4506ZM27.5013 57.7251C27.4086 57.3668 27.2396 57.0905 26.9943 56.8964C26.7472 56.6949 26.4576 56.5707 26.1255 56.5238C25.7916 56.4695 25.4564 56.4857 25.12 56.5725C24.7762 56.6612 24.4751 56.8091 24.2166 57.0161C23.9489 57.2178 23.7558 57.4665 23.6373 57.7623C23.5169 58.0508 23.5031 58.3742 23.5958 58.7325C23.6885 59.0908 23.8584 59.3707 24.1056 59.5721C24.3528 59.7736 24.6424 59.8978 24.9744 59.9447C25.2991 59.9936 25.6334 59.9737 25.9771 59.885C26.3136 59.7982 26.6156 59.654 26.8833 59.4524C27.151 59.2507 27.3441 59.002 27.4627 58.7062C27.5812 58.4104 27.5941 58.0834 27.5013 57.7251Z" fill="black"/>
<path d="M62.0281 52.7245L49.2346 60.7823L49.2346 44.6667L62.0281 52.7245Z" fill="#2A1E17"/>
</svg>
